<mxfile host="app.diagrams.net" modified="2024-03-22T17:39:05.898Z" agent="Mozilla/5.0 (Windows NT 10.0; Win64; x64) AppleWebKit/537.36 (KHTML, like Gecko) Chrome/123.0.0.0 Safari/537.36" etag="6_zjexSgxmEU06Im9kT2" version="24.0.7" type="device">
  <diagram name="Page-1" id="GwfvoT8AO9Jr0s5fjC0d">
    <mxGraphModel dx="1050" dy="569" grid="1" gridSize="10" guides="1" tooltips="1" connect="1" arrows="1" fold="1" page="1" pageScale="1" pageWidth="850" pageHeight="1100" math="0" shadow="0">
      <root>
        <mxCell id="0" />
        <mxCell id="1" parent="0" />
        <mxCell id="H7h2iZN6cr82QCRNjAVD-1" value="Максим" style="shape=umlActor;verticalLabelPosition=bottom;verticalAlign=top;html=1;outlineConnect=0;" parent="1" vertex="1">
          <mxGeometry x="270" y="12.5" width="30" height="60" as="geometry" />
        </mxCell>
        <mxCell id="H7h2iZN6cr82QCRNjAVD-2" value="Катя" style="shape=umlActor;verticalLabelPosition=bottom;verticalAlign=top;html=1;outlineConnect=0;" parent="1" vertex="1">
          <mxGeometry x="270" y="162.5" width="30" height="60" as="geometry" />
        </mxCell>
        <mxCell id="H7h2iZN6cr82QCRNjAVD-3" value="Вячеслав" style="shape=umlActor;verticalLabelPosition=bottom;verticalAlign=top;html=1;outlineConnect=0;" parent="1" vertex="1">
          <mxGeometry x="270" y="332.5" width="30" height="60" as="geometry" />
        </mxCell>
        <mxCell id="H7h2iZN6cr82QCRNjAVD-4" value="Регистрация" style="ellipse;whiteSpace=wrap;html=1;" parent="1" vertex="1">
          <mxGeometry x="480" y="160" width="140" height="65" as="geometry" />
        </mxCell>
        <mxCell id="H7h2iZN6cr82QCRNjAVD-5" value="Авторизация" style="ellipse;whiteSpace=wrap;html=1;" parent="1" vertex="1">
          <mxGeometry x="710" y="157.5" width="140" height="65" as="geometry" />
        </mxCell>
        <mxCell id="H7h2iZN6cr82QCRNjAVD-6" value="Поиск видеоигр" style="ellipse;whiteSpace=wrap;html=1;" parent="1" vertex="1">
          <mxGeometry y="10" width="140" height="65" as="geometry" />
        </mxCell>
        <mxCell id="H7h2iZN6cr82QCRNjAVD-7" value="Создание плейлистов" style="ellipse;whiteSpace=wrap;html=1;" parent="1" vertex="1">
          <mxGeometry y="160" width="140" height="65" as="geometry" />
        </mxCell>
        <mxCell id="H7h2iZN6cr82QCRNjAVD-8" value="Запуск видеоигр" style="ellipse;whiteSpace=wrap;html=1;" parent="1" vertex="1">
          <mxGeometry y="330" width="140" height="65" as="geometry" />
        </mxCell>
        <mxCell id="H7h2iZN6cr82QCRNjAVD-9" value="Получение персональных рекомендаций" style="ellipse;whiteSpace=wrap;html=1;" parent="1" vertex="1">
          <mxGeometry x="480" y="12.5" width="110" height="82.5" as="geometry" />
        </mxCell>
        <mxCell id="H7h2iZN6cr82QCRNjAVD-11" value="" style="endArrow=none;html=1;rounded=0;exitX=1;exitY=0.5;exitDx=0;exitDy=0;" parent="1" source="H7h2iZN6cr82QCRNjAVD-6" target="H7h2iZN6cr82QCRNjAVD-1" edge="1">
          <mxGeometry width="50" height="50" relative="1" as="geometry">
            <mxPoint x="220" y="170" as="sourcePoint" />
            <mxPoint x="270" y="120" as="targetPoint" />
          </mxGeometry>
        </mxCell>
        <mxCell id="H7h2iZN6cr82QCRNjAVD-12" value="" style="endArrow=none;html=1;rounded=0;exitX=1;exitY=0.5;exitDx=0;exitDy=0;" parent="1" source="H7h2iZN6cr82QCRNjAVD-7" target="H7h2iZN6cr82QCRNjAVD-2" edge="1">
          <mxGeometry width="50" height="50" relative="1" as="geometry">
            <mxPoint x="180" y="330" as="sourcePoint" />
            <mxPoint x="230" y="280" as="targetPoint" />
          </mxGeometry>
        </mxCell>
        <mxCell id="H7h2iZN6cr82QCRNjAVD-13" value="" style="endArrow=none;html=1;rounded=0;exitX=1;exitY=0.5;exitDx=0;exitDy=0;" parent="1" source="H7h2iZN6cr82QCRNjAVD-8" target="H7h2iZN6cr82QCRNjAVD-3" edge="1">
          <mxGeometry width="50" height="50" relative="1" as="geometry">
            <mxPoint x="160" y="330" as="sourcePoint" />
            <mxPoint x="210" y="280" as="targetPoint" />
          </mxGeometry>
        </mxCell>
        <mxCell id="H7h2iZN6cr82QCRNjAVD-14" value="" style="endArrow=none;html=1;rounded=0;exitX=1;exitY=0.5;exitDx=0;exitDy=0;" parent="1" source="H7h2iZN6cr82QCRNjAVD-7" target="H7h2iZN6cr82QCRNjAVD-3" edge="1">
          <mxGeometry width="50" height="50" relative="1" as="geometry">
            <mxPoint x="190" y="220" as="sourcePoint" />
            <mxPoint x="180" y="270" as="targetPoint" />
          </mxGeometry>
        </mxCell>
        <mxCell id="H7h2iZN6cr82QCRNjAVD-15" value="" style="endArrow=none;html=1;rounded=0;entryX=1;entryY=0.5;entryDx=0;entryDy=0;" parent="1" source="H7h2iZN6cr82QCRNjAVD-3" target="H7h2iZN6cr82QCRNjAVD-6" edge="1">
          <mxGeometry width="50" height="50" relative="1" as="geometry">
            <mxPoint x="180" y="350" as="sourcePoint" />
            <mxPoint x="230" y="300" as="targetPoint" />
          </mxGeometry>
        </mxCell>
        <mxCell id="H7h2iZN6cr82QCRNjAVD-16" value="" style="endArrow=none;html=1;rounded=0;exitX=1;exitY=0.5;exitDx=0;exitDy=0;" parent="1" source="H7h2iZN6cr82QCRNjAVD-8" target="H7h2iZN6cr82QCRNjAVD-2" edge="1">
          <mxGeometry width="50" height="50" relative="1" as="geometry">
            <mxPoint x="120" y="150" as="sourcePoint" />
            <mxPoint x="170" y="100" as="targetPoint" />
          </mxGeometry>
        </mxCell>
        <mxCell id="H7h2iZN6cr82QCRNjAVD-17" value="" style="endArrow=none;html=1;rounded=0;exitX=1;exitY=0.5;exitDx=0;exitDy=0;" parent="1" source="H7h2iZN6cr82QCRNjAVD-6" target="H7h2iZN6cr82QCRNjAVD-2" edge="1">
          <mxGeometry width="50" height="50" relative="1" as="geometry">
            <mxPoint x="200" y="170" as="sourcePoint" />
            <mxPoint x="250" y="120" as="targetPoint" />
          </mxGeometry>
        </mxCell>
        <mxCell id="H7h2iZN6cr82QCRNjAVD-18" value="" style="endArrow=none;html=1;rounded=0;exitX=1;exitY=0.5;exitDx=0;exitDy=0;" parent="1" source="H7h2iZN6cr82QCRNjAVD-7" target="H7h2iZN6cr82QCRNjAVD-1" edge="1">
          <mxGeometry width="50" height="50" relative="1" as="geometry">
            <mxPoint x="70" y="160" as="sourcePoint" />
            <mxPoint x="120" y="110" as="targetPoint" />
          </mxGeometry>
        </mxCell>
        <mxCell id="H7h2iZN6cr82QCRNjAVD-19" value="" style="endArrow=none;html=1;rounded=0;exitX=1;exitY=0.5;exitDx=0;exitDy=0;" parent="1" source="H7h2iZN6cr82QCRNjAVD-8" target="H7h2iZN6cr82QCRNjAVD-1" edge="1">
          <mxGeometry width="50" height="50" relative="1" as="geometry">
            <mxPoint x="40" y="330" as="sourcePoint" />
            <mxPoint x="90" y="280" as="targetPoint" />
          </mxGeometry>
        </mxCell>
        <mxCell id="H7h2iZN6cr82QCRNjAVD-20" value="" style="endArrow=none;html=1;rounded=0;exitX=0;exitY=0.5;exitDx=0;exitDy=0;" parent="1" source="H7h2iZN6cr82QCRNjAVD-9" target="H7h2iZN6cr82QCRNjAVD-2" edge="1">
          <mxGeometry width="50" height="50" relative="1" as="geometry">
            <mxPoint x="400" y="440" as="sourcePoint" />
            <mxPoint x="450" y="390" as="targetPoint" />
          </mxGeometry>
        </mxCell>
        <mxCell id="H7h2iZN6cr82QCRNjAVD-21" value="" style="endArrow=none;html=1;rounded=0;entryX=0;entryY=0.5;entryDx=0;entryDy=0;" parent="1" source="H7h2iZN6cr82QCRNjAVD-1" target="H7h2iZN6cr82QCRNjAVD-4" edge="1">
          <mxGeometry width="50" height="50" relative="1" as="geometry">
            <mxPoint x="420" y="120" as="sourcePoint" />
            <mxPoint x="470" y="70" as="targetPoint" />
          </mxGeometry>
        </mxCell>
        <mxCell id="H7h2iZN6cr82QCRNjAVD-22" value="" style="endArrow=none;html=1;rounded=0;entryX=0;entryY=0.5;entryDx=0;entryDy=0;" parent="1" source="H7h2iZN6cr82QCRNjAVD-2" target="H7h2iZN6cr82QCRNjAVD-4" edge="1">
          <mxGeometry width="50" height="50" relative="1" as="geometry">
            <mxPoint x="330" y="210" as="sourcePoint" />
            <mxPoint x="380" y="160" as="targetPoint" />
          </mxGeometry>
        </mxCell>
        <mxCell id="H7h2iZN6cr82QCRNjAVD-23" value="" style="endArrow=none;html=1;rounded=0;entryX=0;entryY=0.5;entryDx=0;entryDy=0;" parent="1" source="H7h2iZN6cr82QCRNjAVD-3" target="H7h2iZN6cr82QCRNjAVD-4" edge="1">
          <mxGeometry width="50" height="50" relative="1" as="geometry">
            <mxPoint x="420" y="410" as="sourcePoint" />
            <mxPoint x="470" y="360" as="targetPoint" />
          </mxGeometry>
        </mxCell>
        <mxCell id="H7h2iZN6cr82QCRNjAVD-25" value="" style="endArrow=classic;html=1;rounded=0;exitX=1;exitY=0.5;exitDx=0;exitDy=0;entryX=0;entryY=0.5;entryDx=0;entryDy=0;dashed=1;" parent="1" source="H7h2iZN6cr82QCRNjAVD-4" target="H7h2iZN6cr82QCRNjAVD-5" edge="1">
          <mxGeometry width="50" height="50" relative="1" as="geometry">
            <mxPoint x="620" y="340" as="sourcePoint" />
            <mxPoint x="670" y="290" as="targetPoint" />
          </mxGeometry>
        </mxCell>
        <mxCell id="H7h2iZN6cr82QCRNjAVD-28" value="&amp;lt;&amp;lt;Включает&amp;gt;&amp;gt;" style="text;html=1;align=center;verticalAlign=middle;whiteSpace=wrap;rounded=0;" parent="1" vertex="1">
          <mxGeometry x="635" y="185" width="60" height="30" as="geometry" />
        </mxCell>
        <mxCell id="dD1UfqCzrNd3WBTvmNNC-1" value="" style="endArrow=none;html=1;rounded=0;entryX=0;entryY=0.5;entryDx=0;entryDy=0;" edge="1" parent="1" source="H7h2iZN6cr82QCRNjAVD-3" target="H7h2iZN6cr82QCRNjAVD-9">
          <mxGeometry width="50" height="50" relative="1" as="geometry">
            <mxPoint x="400" y="300" as="sourcePoint" />
            <mxPoint x="450" y="250" as="targetPoint" />
          </mxGeometry>
        </mxCell>
        <mxCell id="dD1UfqCzrNd3WBTvmNNC-2" value="" style="endArrow=none;html=1;rounded=0;entryX=0;entryY=0.5;entryDx=0;entryDy=0;" edge="1" parent="1" source="H7h2iZN6cr82QCRNjAVD-1" target="H7h2iZN6cr82QCRNjAVD-9">
          <mxGeometry width="50" height="50" relative="1" as="geometry">
            <mxPoint x="330" y="440" as="sourcePoint" />
            <mxPoint x="380" y="390" as="targetPoint" />
          </mxGeometry>
        </mxCell>
      </root>
    </mxGraphModel>
  </diagram>
</mxfile>
